<svg xmlns="http://www.w3.org/2000/svg" xmlns:xlink="http://www.w3.org/1999/xlink" version="1.1" x="0px" y="0px" viewBox="0 0 12.45 15.5625" enable-background="new 0 0 12.45 12.45" xml:space="preserve"><g><path d="M11.131,3.347c0-0.852-0.693-1.545-1.544-1.545c-0.66,0-1.244,0.422-1.458,1.037C7.503,2.485,6.795,2.298,6.073,2.298   c-0.632,0-1.238,0.139-1.805,0.41C4.02,2.163,3.466,1.802,2.862,1.802c-0.852,0-1.543,0.693-1.543,1.545   c0,0.621,0.375,1.182,0.942,1.422C2.02,5.306,1.897,5.88,1.897,6.474c0,2.303,1.874,4.176,4.176,4.176   c2.303,0,4.176-1.873,4.176-4.176c0-0.561-0.109-1.105-0.327-1.621C10.618,4.698,11.131,4.069,11.131,3.347z M9.792,4.708   L9.683,4.726l0.046,0.1c0.234,0.521,0.354,1.076,0.354,1.648c0,2.211-1.799,4.01-4.011,4.01s-4.01-1.799-4.01-4.01   c0-0.6,0.129-1.178,0.385-1.717l0.039-0.082L2.401,4.644C1.852,4.45,1.483,3.927,1.483,3.347c0-0.76,0.619-1.379,1.379-1.379   c0.566,0,1.083,0.355,1.286,0.883l0.033,0.086l0.082-0.041c0.565-0.287,1.175-0.432,1.81-0.432c0.728,0,1.44,0.197,2.062,0.57   l0.094,0.057l0.029-0.105c0.162-0.6,0.709-1.018,1.33-1.018c0.76,0,1.378,0.619,1.378,1.379C10.965,4.022,10.461,4.608,9.792,4.708   z"/><path d="M8.787,3.239l0.989,0.977c0.27-0.273,0.267-0.713-0.006-0.984C9.497,2.964,9.056,2.966,8.787,3.239z"/><path d="M2.453,3.231C2.18,3.503,2.176,3.942,2.446,4.216l0.99-0.977C3.167,2.966,2.727,2.964,2.453,3.231z"/><path d="M6.176,6.185c-1.129,0-2.046,0.918-2.046,2.047c0,1.127,0.917,2.045,2.046,2.045c1.128,0,2.046-0.918,2.046-2.045   C8.222,7.103,7.304,6.185,6.176,6.185z M6.176,10.112c-1.037,0-1.882-0.844-1.882-1.881s0.845-1.881,1.882-1.881   s1.88,0.844,1.88,1.881S7.213,10.112,6.176,10.112z"/><path d="M6.873,7.163c0,0-0.138-0.303-0.696-0.303S5.412,7.163,5.412,7.163s0.138,0.91,0.729,0.91   C6.735,8.073,6.873,7.163,6.873,7.163z"/><path d="M6.425,8.481c-0.315,0-0.571,0.33-0.571,0.738S6.11,9.96,6.425,9.96c0.315,0,0.572-0.332,0.572-0.74   S6.741,8.481,6.425,8.481z M6.425,9.71c-0.174,0-0.321-0.225-0.321-0.49s0.147-0.488,0.321-0.488c0.175,0,0.322,0.223,0.322,0.488   S6.6,9.71,6.425,9.71z"/><path d="M8.517,4.782C8.472,4.733,8.392,4.729,8.341,4.776L7.808,5.265L7.275,4.776c-0.05-0.047-0.129-0.043-0.176,0.006   C7.052,4.833,7.056,4.913,7.106,4.96l0.517,0.475L7.106,5.911C7.056,5.958,7.052,6.036,7.099,6.087   c0.024,0.027,0.058,0.041,0.092,0.041c0.03,0,0.061-0.012,0.084-0.033l0.533-0.49l0.533,0.49c0.024,0.021,0.054,0.033,0.084,0.033   c0.034,0,0.067-0.014,0.092-0.041C8.564,6.036,8.561,5.958,8.51,5.911L7.993,5.435L8.51,4.96C8.561,4.913,8.564,4.833,8.517,4.782z   "/><path d="M5.008,6.095c0.024,0.021,0.054,0.033,0.084,0.033c0.034,0,0.067-0.014,0.092-0.041c0.047-0.051,0.043-0.129-0.007-0.176   L4.66,5.435L5.177,4.96c0.051-0.047,0.054-0.127,0.007-0.178C5.139,4.733,5.06,4.729,5.008,4.776L4.476,5.265L3.943,4.776   c-0.05-0.047-0.129-0.043-0.176,0.006C3.72,4.833,3.723,4.913,3.774,4.96l0.518,0.475L3.774,5.911   C3.723,5.958,3.72,6.036,3.767,6.087c0.024,0.027,0.058,0.041,0.092,0.041c0.03,0,0.061-0.012,0.084-0.033l0.533-0.49L5.008,6.095z   "/></g><text x="0" y="27.45" fill="#000000" font-size="5px" font-weight="bold" font-family="'Helvetica Neue', Helvetica, Arial-Unicode, Arial, Sans-serif">Created by Julia Amadeo</text><text x="0" y="32.45" fill="#000000" font-size="5px" font-weight="bold" font-family="'Helvetica Neue', Helvetica, Arial-Unicode, Arial, Sans-serif">from the Noun Project</text></svg>