<svg xmlns="http://www.w3.org/2000/svg" xmlns:xlink="http://www.w3.org/1999/xlink" version="1.1" x="0px" y="0px" viewBox="0 0 12.45 15.5625" enable-background="new 0 0 12.45 12.45" xml:space="preserve"><g><path d="M11.131,3.346c0-0.852-0.692-1.545-1.543-1.545c-0.66,0-1.245,0.422-1.458,1.037C7.504,2.484,6.796,2.297,6.073,2.297   c-0.632,0-1.238,0.139-1.805,0.41C4.021,2.162,3.466,1.801,2.862,1.801c-0.851,0-1.543,0.693-1.543,1.545   c0,0.621,0.375,1.182,0.943,1.422C2.021,5.305,1.897,5.879,1.897,6.473c0,2.303,1.874,4.176,4.176,4.176   c2.303,0,4.176-1.873,4.176-4.176c0-0.561-0.11-1.105-0.328-1.621C10.619,4.697,11.131,4.068,11.131,3.346z M9.792,4.707   L9.684,4.725l0.045,0.1c0.235,0.521,0.355,1.076,0.355,1.648c0,2.211-1.799,4.01-4.011,4.01c-2.211,0-4.01-1.799-4.01-4.01   c0-0.6,0.13-1.178,0.385-1.717l0.039-0.082L2.401,4.643C1.853,4.449,1.484,3.926,1.484,3.346c0-0.76,0.619-1.379,1.378-1.379   c0.566,0,1.083,0.355,1.287,0.883l0.033,0.086l0.082-0.041c0.566-0.287,1.175-0.432,1.81-0.432c0.728,0,1.441,0.197,2.062,0.57   L8.229,3.09l0.029-0.105c0.162-0.6,0.709-1.018,1.33-1.018c0.76,0,1.378,0.619,1.378,1.379C10.966,4.021,10.461,4.607,9.792,4.707z   "/><path d="M8.787,3.238l0.99,0.977c0.27-0.273,0.266-0.713-0.007-0.984C9.497,2.963,9.057,2.965,8.787,3.238z"/><path d="M2.454,3.23C2.181,3.502,2.177,3.941,2.446,4.215l0.99-0.977C3.167,2.965,2.727,2.963,2.454,3.23z"/><path d="M6.176,6.184c-1.128,0-2.046,0.918-2.046,2.047c0,1.127,0.918,2.045,2.046,2.045c1.128,0,2.046-0.918,2.046-2.045   C8.223,7.102,7.305,6.184,6.176,6.184z M6.176,10.111c-1.037,0-1.881-0.844-1.881-1.881S5.14,6.35,6.176,6.35   c1.038,0,1.881,0.844,1.881,1.881S7.214,10.111,6.176,10.111z"/><path d="M6.142,8.072c0.593,0,0.731-0.91,0.731-0.91S6.735,6.859,6.176,6.859c-0.558,0-0.764,0.303-0.764,0.303   S5.55,8.072,6.142,8.072z"/><path d="M4.489,6.266c0-0.258-0.21-0.467-0.469-0.467S3.552,6.008,3.552,6.266c0,0.26,0.209,0.469,0.468,0.469   S4.489,6.525,4.489,6.266z M3.944,6.377c-0.095,0-0.172-0.078-0.172-0.172c0-0.096,0.077-0.172,0.172-0.172   c0.096,0,0.173,0.076,0.173,0.172C4.117,6.299,4.04,6.377,3.944,6.377z"/><path d="M8.14,5.799c-0.259,0-0.468,0.209-0.468,0.467c0,0.26,0.209,0.469,0.468,0.469s0.469-0.209,0.469-0.469   C8.609,6.008,8.399,5.799,8.14,5.799z M8.064,6.377c-0.095,0-0.172-0.078-0.172-0.172c0-0.096,0.077-0.172,0.172-0.172   c0.096,0,0.173,0.076,0.173,0.172C8.237,6.299,8.16,6.377,8.064,6.377z"/><path d="M6.629,8.844c-0.215,0-0.379,0.111-0.486,0.248C6.049,8.971,5.894,8.844,5.656,8.844c-0.429,0-0.663,0.424-0.672,0.441   c-0.033,0.061-0.01,0.135,0.05,0.168C5.091,9.486,5.17,9.465,5.203,9.404C5.205,9.4,5.377,9.094,5.656,9.094   c0.248,0,0.351,0.244,0.369,0.293C6.043,9.436,6.09,9.469,6.143,9.469c0.054,0,0.101-0.033,0.118-0.084   c0.001-0.004,0.102-0.291,0.368-0.291c0.279,0,0.451,0.307,0.453,0.311c0.034,0.061,0.111,0.082,0.17,0.049   c0.06-0.033,0.083-0.107,0.05-0.168C7.292,9.268,7.058,8.844,6.629,8.844z"/><path d="M4.529,4.734C4.483,4.684,4.405,4.68,4.353,4.727L3.119,5.861C3.068,5.908,3.064,5.988,3.111,6.039   c0.024,0.025,0.058,0.039,0.092,0.039c0.03,0,0.061-0.01,0.084-0.033L4.522,4.91C4.573,4.863,4.576,4.785,4.529,4.734z"/><path d="M8.002,4.727C7.952,4.68,7.873,4.684,7.826,4.734S7.782,4.863,7.833,4.91l1.234,1.135c0.024,0.023,0.054,0.033,0.084,0.033   c0.034,0,0.067-0.014,0.092-0.039c0.047-0.051,0.043-0.131-0.007-0.178L8.002,4.727z"/></g><text x="0" y="27.45" fill="#000000" font-size="5px" font-weight="bold" font-family="'Helvetica Neue', Helvetica, Arial-Unicode, Arial, Sans-serif">Created by Julia Amadeo</text><text x="0" y="32.45" fill="#000000" font-size="5px" font-weight="bold" font-family="'Helvetica Neue', Helvetica, Arial-Unicode, Arial, Sans-serif">from the Noun Project</text></svg>